:SAMPLES-PER-SECOND 30
:FULLY-SPECIFIED
:DEGREES
218
root  51.7668 28.7662 1.92904 -166.499 8.24042 -174.94
RightUpLeg  -42.4675 -11.5198 7.43024
RightLeg  62.363 0.991804 1.52731
RightFoot  -22.5948 -0.175286 -0.499879
RightToes  -34.9907 -0.179754 -0.285113
Spine  12.8267 2.82581 2.49107
Spine1  21.2416 6.5818 1.13597
HEad  35.4425 16.3022 -5.05056
LeftShoulder1  0 -2.42657e-020 -4.95415e-022
LeftArm  -14.1821 -27.3555 -88.7701
LeftForeArm  63.3575 -14.8021 -2.6143
LeftHand  1.68974 -10.6319 -18.393
RightShoulder  0 2.42657e-020 1.07489e-018
RightArm  -35.1874 33.5853 84.9729
RightForeArm  47.1736 11.936 2.1145
RightHand  -0.33563 23.4781 -1.24537
LeftUpLeg  -38.8665 -8.1007 3.42358
LeftLeg  84.5308 1.29644 7.95281
LeftFoot  -19.5859 -0.418293 -2.42309
LeftToes  -8.22655 3.33339e-006 -4.73431e-007
219
root  52.2712 29.2543 0.247933 -166.18 8.60382 -175.505
RightUpLeg  -37.4058 -10.3683 6.61961
RightLeg  58.419 0.515579 0.649517
RightFoot  -24.0089 -0.104134 -0.112176
RightToes  -35.1411 -0.178316 -0.283871
Spine  12.5613 3.77005 2.1254
Spine1  21.063 9.31164 0.46654
HEad  34.8886 13.7992 -4.6558
LeftShoulder1  0 -2.42657e-020 -4.95415e-022
LeftArm  -14.0672 -24.8176 -89.8816
LeftForeArm  66.4754 -15.9178 -2.8177
LeftHand  1.47466 -10.8701 -15.7862
RightShoulder  0 2.42657e-020 1.07489e-018
RightArm  -45.4633 34.4878 83.8354
RightForeArm  50.1105 8.84272 1.54796
RightHand  -0.520196 22.2558 -2.27483
LeftUpLeg  -44.7192 -5.78477 1.01246
LeftLeg  79.5691 1.25098 4.93548
LeftFoot  -19.143 -0.200029 -1.1862
LeftToes  -10.1795 3.33339e-006 -4.73431e-007
220
root  52.7985 30.0193 -1.7207 -166.683 8.41122 -176.496
RightUpLeg  -29.8376 -9.88176 5.35215
RightLeg  51.657 -0.170288 -0.240579
RightFoot  -23.8945 -0.0142191 0.310358
RightToes  -34.9945 -0.175365 -0.281336
Spine  12.1975 4.7686 1.63159
Spine1  20.7624 12.2086 -0.529586
HEad  35.9436 10.2186 -2.869
LeftShoulder1  0 -2.42657e-020 -4.95415e-022
LeftArm  -16.2817 -20.1831 -90.6737
LeftForeArm  63.7405 -18.585 -3.33923
LeftHand  0.78539 -11.1662 -8.39652
RightShoulder  0 2.42657e-020 1.07489e-018
RightArm  -50.1685 32.1979 81.536
RightForeArm  45.9226 8.58588 1.50848
RightHand  -0.339786 21.6584 -1.40656
LeftUpLeg  -47.0648 -2.90019 -2.04757
LeftLeg  69.8621 1.20054 2.7015
LeftFoot  -18.0359 -0.0547967 -0.345281
LeftToes  -11.2133 3.33339e-006 -4.73431e-007
221
root  53.2782 30.8932 -3.92856 -167.445 6.77116 -178.225
RightUpLeg  -20.7625 -9.51823 3.71248
RightLeg  42.683 -2.54167 -2.0839
RightFoot  -22.0585 0.18496 1.32652
RightToes  -34.1976 -0.173868 -0.280056
Spine  11.1678 5.31123 1.03891
Spine1  19.2773 13.9261 -1.73052
HEad  37.5535 5.43416 0.322294
LeftShoulder1  0 -2.42657e-020 -4.95415e-022
LeftArm  -19.132 -14.0026 -90.806
LeftForeArm  56.7928 -21.2404 -3.88464
LeftHand  0.345628 -11.511 -3.80033
RightShoulder  0 2.42657e-020 1.07489e-018
RightArm  -52.8794 26.9973 80.0696
RightForeArm  41.1609 10.2855 1.82163
RightHand  0.0637654 21.9396 0.699179
LeftUpLeg  -46.4705 -0.588984 -6.25627
LeftLeg  56.3101 2.08646 2.71989
LeftFoot  -14.7143 -0.0400549 -0.310231
LeftToes  -11.08 3.33339e-006 -4.73431e-007
222
root  53.755 31.627 -6.27201 -167.987 4.6046 -179.642
RightUpLeg  -12.2685 -7.88149 3.21041
RightLeg  34.8192 -7.80743 -4.70311
RightFoot  -17.5076 0.365884 2.75346
RightToes  -34.5219 -0.176267 -0.282134
Spine  9.79578 5.56102 0.520003
Spine1  17.1743 14.7182 -2.92446
HEad  38.2136 1.44809 2.89361
LeftShoulder1  0 -2.42657e-020 -4.95415e-022
LeftArm  -22.4709 -7.2946 -89.7536
LeftForeArm  51.6716 -24.2197 -4.51358
LeftHand  0.301706 -11.6671 -3.3243
RightShoulder  0 2.42657e-020 1.07489e-018
RightArm  -53.1059 20.7721 79.4321
RightForeArm  35.2315 13.0557 2.3357
RightHand  0.464175 22.5895 2.69452
LeftUpLeg  -44.2498 2.74347 -10.9597
LeftLeg  41.7541 3.0013 2.34294
LeftFoot  -7.40988 0.0050442 0.0778892
LeftToes  -12.9582 3.33339e-006 -4.73431e-007
223
root  54.271 32.0682 -8.72105 -168.668 2.02873 -179.304
RightUpLeg  -5.05287 -9.0078 4.29278
RightLeg  29.7454 -11.0577 -5.36312
RightFoot  -10.6465 0.181414 2.32452
RightToes  -40.9266 -0.225928 -0.320297
Spine  8.84786 5.48261 0.736032
Spine1  16.0151 14.4211 -2.54174
HEad  38.1565 -0.891346 3.96979
LeftShoulder1  0 -2.42657e-020 -4.95415e-022
LeftArm  -25.101 -1.60112 -88.7056
LeftForeArm  48.7681 -26.8788 -5.097
LeftHand  0.297482 -10.7586 -3.53064
RightShoulder  0 2.42657e-020 1.07489e-018
RightArm  -52.451 15.8494 78.1196
RightForeArm  28.3246 16.2709 2.94533
RightHand  1.11173 23.4266 5.72985
LeftUpLeg  -41.7408 6.97494 -14.2917
LeftLeg  30.3429 1.61425 0.806585
LeftFoot  -4.96262 0.0123451 0.284872
LeftToes  -16.4026 3.33339e-006 -4.73431e-007
224
root  54.7378 32.1776 -11.101 -169.414 0.245865 -178.144
RightUpLeg  -0.782397 -10.1151 5.51442
RightLeg  29.7815 -11.15 -5.41552
RightFoot  -3.77284 0.0194343 0.967783
RightToes  -49.4945 -0.298416 -0.362241
Spine  8.23526 5.41301 1.34599
Spine1  15.3361 14.055 -1.17062
HEad  38.4707 -2.08619 3.62654
LeftShoulder1  0 -2.42657e-020 -4.95415e-022
LeftArm  -27.0988 3.36282 -88.301
LeftForeArm  49.526 -28.3132 -5.41931
LeftHand  0.0942634 -10.532 -1.39356
RightShoulder  0 2.42657e-020 1.07489e-018
RightArm  -49.5308 12.4891 75.1586
RightForeArm  22.8096 19.2781 3.53184
RightHand  0.91418 22.9132 4.87993
LeftUpLeg  -40.3494 8.21685 -14.7837
LeftLeg  25.3714 0.980565 0.386917
LeftFoot  -7.08954 0.00954576 0.154086
LeftToes  -13.3589 3.33339e-006 -4.73431e-007
225
root  55.1134 31.9967 -13.4133 -170.337 -0.715164 -177.766
RightUpLeg  1.0249 -13.9729 4.06923
RightLeg  34.5296 -6.59009 -3.93305
RightFoot  1.82124 0.00392169 0.130769
RightToes  -58.0466 -0.376198 -0.392872
Spine  8.07254 5.19219 1.70036
Spine1  15.245 13.5874 -0.624987
HEad  36.959 -0.737473 2.20483
LeftShoulder1  0 -2.42657e-020 -4.95415e-022
LeftArm  -31.108 6.76245 -87.932
LeftForeArm  49.1816 -28.3424 -5.4266
LeftHand  0.0888641 -10.373 -1.34983
RightShoulder  0 2.42657e-020 1.07489e-018
RightArm  -50.609 12.8408 72.5404
RightForeArm  25.1524 20.9151 3.85906
RightHand  0.383607 23.3361 2.22803
LeftUpLeg  -39.3117 6.14251 -13.9984
LeftLeg  25.7669 2.63512 1.0656
LeftFoot  -8.61323 -0.0170966 -0.227036
LeftToes  -8.34705 3.33339e-006 -4.73431e-007
226
root  55.3941 31.5927 -15.6436 -170.723 -0.768295 -178.666
RightUpLeg  0.618539 -17.2647 0.388458
RightLeg  42.555 -1.50524 -1.24034
RightFoot  7.09383 -0.00208662 0.411172
RightToes  -62.5049 -0.418322 -0.404152
Spine  7.90416 4.92991 1.18139
Spine1  14.7481 13.1568 -1.84268
HEad  34.0428 1.56776 2.10039
LeftShoulder1  0 -2.42657e-020 -4.95415e-022
LeftArm  -34.0263 9.60049 -85.8218
LeftForeArm  45.4931 -28.7615 -5.52904
LeftHand  0.334036 -9.79091 -4.27146
RightShoulder  0 2.42657e-020 1.07489e-018
RightArm  -50.3762 13.9594 71.796
RightForeArm  17.9824 25.6704 4.85695
RightHand  0.931105 23.7734 4.79266
LeftUpLeg  -39.15 4.52384 -14.7473
LeftLeg  30.1728 3.52269 1.75028
LeftFoot  -9.18339 -0.0346982 -0.432048
LeftToes  12.9014 3.33339e-006 -4.73431e-007
227
root  55.6772 30.934 -17.7609 -171.703 -0.369278 -178.906
RightUpLeg  -1.85464 -15.5316 -1.36111
RightLeg  54.1082 1.32964 1.5477
RightFoot  12.9455 -0.112253 1.36686
RightToes  -56.4137 -0.361007 -0.387926
Spine  8.11908 4.99956 0.765037
Spine1  15.0344 13.4455 -2.94713
HEad  30.5609 3.53658 2.28348
LeftShoulder1  0 -2.42657e-020 -4.95415e-022
LeftArm  -34.2005 10.8545 -83.2215
LeftForeArm  43.0503 -29.5502 -5.71614
LeftHand  0.554632 -9.5349 -7.01787
RightShoulder  0 2.42657e-020 1.07489e-018
RightArm  -48.4672 16.6982 70.2891
RightForeArm  16.0876 31.9419 6.30849
RightHand  1.28813 24.3298 6.34202
LeftUpLeg  -39.9894 1.21333 -13.0285
LeftLeg  39.7153 5.84575 4.23206
LeftFoot  -8.05856 -0.0512594 -0.727698
LeftToes  7.42888 3.33339e-006 -4.73431e-007
228
root  55.8502 30.2872 -19.9303 -173.307 -0.305634 -179.751
RightUpLeg  -5.35222 -10.8567 -2.65854
RightLeg  65.7072 4.16072 7.65606
RightFoot  17.8143 -0.53681 3.80161
RightToes  -47.5905 -0.281779 -0.353865
Spine  8.49957 5.07852 0.419309
Spine1  15.665 13.7185 -3.90663
HEad  28.702 5.02076 0.941235
LeftShoulder1  0 -2.42657e-020 -4.95415e-022
LeftArm  -32.5453 10.0483 -80.9427
LeftForeArm  41.7632 -27.8908 -5.33512
LeftHand  0.559046 -8.99865 -7.47106
RightShoulder  0 2.42657e-020 1.07489e-018
RightArm  -49.5479 21.3783 68.0447
RightForeArm  18.0803 35.8628 7.32397
RightHand  2.22292 25.3729 10.2241
LeftUpLeg  -39.5055 1.0496 -13.5987
LeftLeg  48.4207 5.54758 5.46496
LeftFoot  -13.2318 -0.178456 -1.53853
LeftToes  14.3015 3.33339e-006 -4.73431e-007
229
root  55.8951 29.8889 -22.0537 -174.653 -0.745514 178.7
RightUpLeg  -9.87509 -6.57339 -4.40774
RightLeg  74.8123 4.71833 13.3103
RightFoot  12.3477 -0.414539 4.20807
RightToes  -49.6577 -0.299856 -0.362933
Spine  8.46712 5.18145 0.00600592
Spine1  15.4706 13.9258 -4.7885
HEad  30.8889 5.95214 -0.798475
LeftShoulder1  0 -2.42657e-020 -4.95415e-022
LeftArm  -31.2056 8.70442 -79.7252
LeftForeArm  44.8151 -26.3982 -4.99685
LeftHand  0.585119 -9.23818 -7.60821
RightShoulder  0 2.42657e-020 1.07489e-018
RightArm  -52.2917 25.6889 65.8736
RightForeArm  15.226 36.4211 7.47546
RightHand  3.34782 23.6887 16.24
LeftUpLeg  -36.4707 1.70702 -15.0938
LeftLeg  52.5683 4.62054 5.26538
LeftFoot  -18.5557 -0.340918 -2.08671
LeftToes  14.9692 3.33339e-006 -4.73431e-007
230
root  55.9589 29.9026 -24.1522 -175.557 -2.48265 177.998
RightUpLeg  -14.9947 -4.79702 -5.32083
RightLeg  79.2284 2.38268 8.82224
RightFoot  7.86546 -0.137225 2.37322
RightToes  -47.0631 -0.27722 -0.351447
Spine  8.35708 5.04368 0.0711156
Spine1  15.1624 13.7735 -5.00954
HEad  33.8248 7.47444 -2.65924
LeftShoulder1  0 -2.42657e-020 -4.95415e-022
LeftArm  -28.6326 9.04343 -79.3686
LeftForeArm  46.1051 -28.2506 -5.41076
LeftHand  0.583336 -10.1596 -6.92984
RightShoulder  0 2.42657e-020 1.07489e-018
RightArm  -56.1929 28.2818 63.8128
RightForeArm  16.6329 33.8099 6.78012
RightHand  3.67069 24.2199 17.3624
LeftUpLeg  -31.8383 0.870982 -15.3628
LeftLeg  53.2627 4.12999 4.82549
LeftFoot  -21.7267 -0.441804 -2.30189
LeftToes  13.9071 3.33339e-006 -4.73431e-007
231
root  56.0709 30.336 -26.1719 -176.168 -4.32774 177.841
RightUpLeg  -20.2335 -3.87287 -5.86488
RightLeg  79.4443 0.359109 1.05709
RightFoot  1.30189 -0.00669768 0.966526
RightToes  -37.7137 -0.200482 -0.301846
Spine  8.16804 4.68705 0.310045
Spine1  14.9041 12.8944 -4.53228
HEad  35.1713 9.10017 -4.21167
LeftShoulder1  0 -2.42657e-020 -4.95415e-022
LeftArm  -24.501 10.0997 -79.4654
LeftForeArm  44.2981 -30.914 -6.03874
LeftHand  0.461959 -10.1125 -5.59133
RightShoulder  0 2.42657e-020 1.07489e-018
RightArm  -56.5911 27.6412 62.6398
RightForeArm  11.126 34.4549 6.94443
RightHand  4.05843 22.9233 20.2
LeftUpLeg  -25.7529 -0.00651512 -14.7992
LeftLeg  50.2106 3.82705 4.01982
LeftFoot  -23.0402 -0.451494 -2.21493
LeftToes  13.1156 3.33339e-006 -4.73431e-007
